HIERARCHY
ROOT Hips
{
  OFFSET 13.6774 106.653 -34.4427
  CHANNELS 6 Xposition Yposition Zposition Zrotation Xrotation Yrotation
  JOINT ToSpine
  {
    OFFSET -2.69724 7.43032 -0.144315
    CHANNELS 3 Zrotation Xrotation Yrotation
    JOINT Spine
    {
      OFFSET -0.0310711 10.7595 1.96963
      CHANNELS 3 Zrotation Xrotation Yrotation
      JOINT Spine1
      {
        OFFSET 19.9056 3.91189 0.764692
        CHANNELS 3 Zrotation Xrotation Yrotation
        JOINT Neck
        {
          OFFSET 25.9749 7.03908 -0.130764
          CHANNELS 3 Zrotation Xrotation Yrotation
          JOINT Head
          {
            OFFSET 9.52751 0.295786 -0.907742
            CHANNELS 3 Zrotation Xrotation Yrotation
            End Site
            {
              OFFSET 16.4037 0.713936 2.7358
            }
          }
        }
        JOINT LeftShoulder
        {
          OFFSET 17.7449 4.33886 11.7777
          CHANNELS 3 Zrotation Xrotation Yrotation
          JOINT LeftArm
          {
            OFFSET 0.911315 1.27913 9.80584
            CHANNELS 3 Zrotation Xrotation Yrotation
            JOINT LeftForeArm
            {
              OFFSET 28.6126 1.18197 -3.53199
              CHANNELS 3 Zrotation Xrotation Yrotation
              JOINT LeftHand
              {
                OFFSET 27.5088 0.0218783 0.327423
                CHANNELS 3 Zrotation Xrotation Yrotation
                End Site
                {
                  OFFSET 18.6038 -0.000155887 0.382096
                }
              }
            }
          }
        }
        JOINT RightShoulder
        {
          OFFSET 17.1009 2.89543 -12.2328
          CHANNELS 3 Zrotation Xrotation Yrotation
          JOINT RightArm
          {
            OFFSET 1.4228 0.178766 -10.211
            CHANNELS 3 Zrotation Xrotation Yrotation
            JOINT RightForeArm
            {
              OFFSET 28.733 1.87905 2.64907
              CHANNELS 3 Zrotation Xrotation Yrotation
              JOINT RightHand
              {
                OFFSET 27.4588 0.290562 -0.101845
                CHANNELS 3 Zrotation Xrotation Yrotation
                End Site
                {
                  OFFSET 17.8396 -0.255518 -0.000602873
                }
              }
            }
          }
        }
      }
    }
  }
  JOINT LeftUpLeg
  {
    OFFSET -5.61296 -2.22332 -10.2353
    CHANNELS 3 Zrotation Xrotation Yrotation
    JOINT LeftLeg
    {
      OFFSET 2.56703 -44.7417 -7.93097
      CHANNELS 3 Zrotation Xrotation Yrotation
      JOINT LeftFoot
      {
        OFFSET 3.16933 -46.5642 -3.96578
        CHANNELS 3 Zrotation Xrotation Yrotation
        JOINT LeftToeBase
        {
          OFFSET 0.346054 -6.02161 12.8035
          CHANNELS 3 Zrotation Xrotation Yrotation
          End Site
          {
            OFFSET 0.134235 -1.35082 5.13018
          }
        }
      }
    }
  }
  JOINT RightUpLeg
  {
    OFFSET -5.7928 -1.72406 10.6446
    CHANNELS 3 Zrotation Xrotation Yrotation
    JOINT RightLeg
    {
      OFFSET -2.57161 -44.7178 -7.85259
      CHANNELS 3 Zrotation Xrotation Yrotation
      JOINT RightFoot
      {
        OFFSET -3.10148 -46.5936 -4.03391
        CHANNELS 3 Zrotation Xrotation Yrotation
        JOINT RightToeBase
        {
          OFFSET -0.0828122 -6.13587 12.8035
          CHANNELS 3 Zrotation Xrotation Yrotation
          End Site
          {
            OFFSET -0.131328 -1.35082 5.13018
          }
        }
      }
    }
  }
}
MOTION
Frames: 12
Frame Time: 0.03333333333333333
0.0000 93.1000 0.0000 65.0335 -6.4282 15.7757 -71.5125 0.2535 87.8764 157.0928 53.1859 -59.0818 7.3269 20.0075 1.8969 -169.3504 3.1067 -176.7369 -131.7273 31.7036 158.7004 1.8895 -3.9085 -35.7074 -115.6798 39.2904 -93.6412 0.0041 10.0891 7.1421 8.1888 -0.7853 -1.8076 0.1914 1.9063 16.3626 -76.7049 -36.2512 139.7825 16.3101 -22.8397 32.8154 4.9724 -0.0900 1.3721 9.5702 11.0868 91.6946 -165.4478 74.7381 168.8488 6.2667 3.5506 -0.7509 -13.3680 -49.2043 4.8507 -27.2505 -6.3084 89.0320 14.3520 73.8840 7.0084 -11.6864 -20.9191 0.2301 11.6232 -26.5937 -15.1180 
0.0000 93.1000 0.0000 64.5830 -6.8915 17.8663 -71.5718 0.5601 88.0752 159.3510 53.8064 -60.3849 4.9476 20.7921 2.4539 -172.7733 2.9922 -177.1240 -132.3928 31.8818 158.3654 1.9823 -3.6162 -34.9156 -116.1227 39.1814 -87.6951 -0.9460 12.3859 7.6108 7.1585 -0.4934 -1.8515 0.4091 2.0031 16.3654 -75.6708 -37.6768 139.7766 18.9079 -20.1131 42.0225 5.5189 -0.0321 2.4963 11.3419 12.0981 89.5796 -166.1833 74.5665 173.1171 7.1417 3.6362 -0.8880 -13.3428 -49.4368 5.0343 -29.1768 -6.2505 88.2258 11.6348 71.3007 10.7019 -12.5463 -20.1750 0.3742 12.0216 -27.6399 -15.5831 
0.0000 93.1000 0.0000 62.8452 -4.7665 19.6837 -71.4245 0.0212 88.2453 159.1504 55.9659 -59.5151 2.6508 21.1724 5.1046 -174.9512 3.6618 -178.0677 -132.8817 33.0562 156.8355 2.3699 -3.5628 -33.1861 -118.6655 39.1123 -82.0758 0.9071 14.7797 6.8145 4.6331 -0.0075 -4.1774 -0.7675 2.4684 15.9087 -73.6318 -38.6425 138.5528 19.3282 -16.5134 47.9088 7.0738 -2.7411 0.8974 12.0335 12.2776 87.8490 -167.2629 75.1931 177.6491 7.3447 3.6628 -0.9123 -12.3439 -50.2840 4.2938 -34.6573 -7.2090 85.2882 9.0321 65.8228 13.5600 -11.6842 -20.1788 1.0715 9.4284 -27.8169 -14.5877 
0.0000 93.1000 0.0000 59.8366 -0.9714 24.5276 -71.3395 0.3600 88.1129 157.1481 59.1978 -55.9374 0.4877 21.1480 6.7546 -175.6361 5.0198 181.2360 -131.8729 34.3916 155.6424 2.2906 -3.1059 -30.8339 -118.4166 39.0422 -80.7878 0.3250 13.5328 7.5195 6.8278 -0.9189 -3.1968 0.2705 0.9821 17.5531 -71.2929 -39.0591 131.3814 19.1326 -15.0672 51.2507 5.8051 0.4596 4.0132 11.4919 11.4717 87.8889 -167.1831 76.6392 178.1740 6.8215 4.7666 -0.7653 -13.3805 -50.0874 5.3924 -40.9589 -7.5580 79.7146 5.8991 57.1227 15.3971 -10.9689 -20.8216 0.6207 11.6169 -25.8194 -14.9378 
0.0000 93.1000 0.0000 56.5609 5.2399 25.0781 -71.2124 0.0393 87.8486 152.2677 62.5867 -52.0633 -1.5150 20.6365 8.2075 -172.1703 7.9293 179.0778 -131.6325 37.1833 155.4875 2.6592 -2.9854 -29.2750 -116.7222 38.3818 -82.8390 -0.8781 11.9076 7.3034 8.3078 -1.1511 -2.7024 -0.4669 -0.2403 20.6010 -68.4868 -40.3440 121.5159 17.8784 -13.7197 50.8749 7.2187 -0.3284 3.1350 7.0655 9.9731 92.1133 -163.9057 79.9829 174.1349 6.8567 4.4175 -1.1716 -11.5453 -47.1218 6.9824 -49.3811 -7.5384 80.6925 2.7664 46.9199 10.1908 -8.7621 -21.1355 0.9967 10.5408 -21.5244 -17.0591 
0.0000 93.1000 0.0000 53.7337 12.7780 24.4216 -71.0982 -0.0398 87.8293 144.4245 64.7721 -47.8972 -1.9829 20.9184 7.1285 -171.8970 10.1750 178.7345 -134.1709 40.9961 156.3747 2.4010 -2.2286 -27.1293 -112.3704 36.1306 -87.9157 -1.7631 6.5472 7.1748 10.0530 -0.8439 -2.1539 -0.7150 -1.1874 22.6899 -65.9267 -43.2492 113.4084 17.0288 -15.0797 47.0447 8.1505 -0.3535 1.5150 -2.6772 6.2533 97.7225 -134.0891 84.6101 138.3730 5.5634 1.0998 -1.3241 -11.1914 -43.5281 7.9499 -55.3137 -9.8120 81.2421 1.1653 43.9600 2.0944 -6.3543 -15.3761 0.7735 9.8149 -16.1179 -22.0915 
0.0000 93.1000 0.0000 51.9946 16.9004 25.1641 -71.2294 -0.0754 87.9113 141.2905 64.0879 -47.2341 -2.0062 20.8703 4.2918 -172.7783 11.3213 180.0124 -138.3789 43.8250 158.4422 1.9772 -1.5352 -26.7497 -109.6244 33.3412 -94.7932 -2.4726 3.9452 -1.2311 10.5906 -0.7295 -2.5551 -0.3004 -2.6961 25.5316 -64.0677 -44.8235 107.4687 14.7394 -15.1470 41.9674 8.6573 0.0090 0.9583 -12.0648 4.2318 102.1152 -34.2321 83.6951 33.8835 5.9459 3.4352 -0.8269 -12.2279 -48.2165 6.5636 -55.2548 -8.6491 85.7452 0.7772 52.2480 -4.3155 -4.6244 -6.2993 -0.0469 6.1849 -2.4399 -19.7736 
0.0000 93.1000 0.0000 52.7639 21.6378 21.2471 -71.1270 -0.1726 87.8379 139.1732 62.5497 -51.9817 -0.2007 20.2510 2.9818 -175.6956 12.3147 178.3734 -140.1899 45.2154 157.9588 1.9761 -1.7816 -26.7694 -105.6104 28.1081 -102.8979 -1.3180 -0.0320 -11.8837 10.9536 -0.6357 -4.4950 -0.4810 -3.0002 27.3308 -66.8659 -47.8594 98.6467 12.4037 -13.7112 39.0106 10.1595 -1.0872 -0.5635 -20.7640 2.1668 106.6514 -18.4347 78.5724 14.1128 5.7774 3.5619 -0.9084 -11.9663 -47.8992 5.6113 -48.5399 -6.3384 91.9455 7.8787 73.1267 -9.1623 -5.4918 -3.9198 0.4270 7.8676 -9.5493 -18.4293 
0.0000 93.1000 0.0000 50.2376 30.8218 21.7138 -71.1769 0.3073 87.9522 136.3371 59.4267 -54.9859 1.2190 17.3996 4.5822 -174.5838 14.0312 178.6909 -138.5253 46.9340 160.2104 1.5268 -2.7093 -25.8314 -99.7451 21.1597 -112.7506 -0.8148 -5.9053 -21.4667 11.0306 -0.5315 -5.6492 -0.3197 -3.6326 27.7477 -68.3751 -52.6556 91.0653 10.0241 -9.5835 37.2277 9.9409 -0.8788 -0.7101 -27.5231 -5.0067 104.1134 -15.4049 75.5138 5.9801 5.2385 1.6231 -1.1544 -11.9222 -42.9428 4.7480 -40.7820 -5.2427 90.6641 145.1272 81.6655 -142.7039 -7.2988 -3.4365 1.2175 9.2164 -15.5321 -17.2025 
0.0000 93.1000 0.0000 46.4653 38.7913 23.5245 -71.1207 0.0631 87.8860 130.1756 57.9760 -54.9135 1.6163 15.1300 6.3885 -172.6719 15.2711 175.6740 -137.7806 48.4075 160.1236 1.1849 -3.5743 -22.2469 -106.6100 18.1424 -119.5364 0.7623 -0.7306 -30.8579 10.6069 -1.0034 -6.3016 -0.1118 -4.1226 27.4321 -73.0381 -55.7441 79.1851 7.2853 -7.5236 36.2688 8.1312 -0.1629 0.2014 -31.9479 -10.9456 101.3721 -14.1864 73.6860 0.6114 5.0035 0.7439 -0.9186 -11.5777 -41.7076 4.2945 -26.3501 -5.5941 89.3483 166.8454 65.3823 -163.8800 -7.9489 -3.1846 0.9635 10.2321 -19.9234 -17.5643 
0.0000 93.1000 0.0000 40.5569 41.8520 28.4179 -71.3761 0.2355 87.9481 126.2143 57.9855 -51.9490 0.5365 13.8380 6.8337 -171.5823 16.8123 176.6553 -139.3704 50.9633 162.1733 0.9229 -3.8245 -21.6492 -110.7669 15.7045 -130.5092 4.2317 3.4030 -39.6673 12.6181 -1.4733 -7.8116 0.3240 -3.0397 26.2060 -77.3222 -59.8356 66.4068 4.5741 -4.6467 38.1367 6.3514 0.9152 1.4270 -37.9592 -12.6670 99.0599 -10.3614 67.8921 -6.9300 6.0215 -0.1467 -0.7663 -11.3336 -42.8548 4.3874 -8.6062 -3.1093 90.1888 168.6683 58.9158 -166.7699 -8.1146 -3.3196 0.6245 11.4076 -25.1156 -20.2249 
0.0000 93.1000 0.0000 36.3524 43.9238 35.5432 -71.2494 -0.3173 87.8850 125.2874 58.0535 -49.4523 -0.9596 12.6503 7.8701 -168.5128 18.0969 -181.1050 -140.3049 53.8601 163.9182 0.4878 -4.2921 -19.2151 -109.5612 16.6491 -132.3270 9.9512 6.5135 -51.0074 14.1856 -2.2771 -8.7376 0.1786 -1.0760 23.5093 -81.0506 -62.5821 55.4814 -1.2929 2.6693 39.1722 5.3502 1.4427 2.0111 -47.8780 -10.7581 94.3701 -6.8941 56.3776 -13.9592 6.2081 0.1026 -0.5196 -11.1221 -44.7543 5.6826 1.7128 -1.7898 89.4135 167.7674 63.3643 -166.5343 -7.9922 -6.8915 0.5740 11.3310 -23.7236 -19.9807 
